<?xml version="1.0" ?><!DOCTYPE svg  PUBLIC '-//W3C//DTD SVG 1.1//EN'  'http://www.w3.org/Graphics/SVG/1.1/DTD/svg11.dtd'><svg height="512px" style="enable-background:new 0 0 512 512;" version="1.1" viewBox="0 0 512 512" width="512px" xml:space="preserve" xmlns="http://www.w3.org/2000/svg" xmlns:xlink="http://www.w3.org/1999/xlink"><g id="A_-_175_x2C__file_x2C__report_x2C__invoice_x2C__card_x2C__checklist"><g><rect height="27.091" width="27.095" x="166.378" y="290.93"/><rect height="27.188" width="27.095" x="166.378" y="106.249"/><rect height="27.191" width="27.095" x="166.378" y="229.336"/><path d="M95.081,181.321H83.335v161.232c0,1.811-1.469,3.279-3.28,3.279c-1.812,0-3.28-1.469-3.28-3.279V181.321H65.038v178.023    h30.043V181.321z"/><rect height="27.09" width="27.095" x="166.378" y="167.843"/><polygon points="95.081,157.724 80.056,126.066 65.038,157.723 65.038,174.761 95.081,174.761   "/><rect height="27.186" width="27.095" x="166.378" y="352.428"/><path d="M71.598,411.594h16.827c3.67,0,6.656-2.943,6.656-6.56v-23.978H65.038v23.978    C65.038,408.65,67.981,411.594,71.598,411.594z"/><path d="M414.16,49.439c0.143-0.184,0.287-0.366,0.434-0.548c0.266-0.333,0.537-0.661,0.816-0.983    c0.148-0.173,0.295-0.346,0.447-0.515c0.315-0.353,0.641-0.698,0.97-1.039c0.119-0.124,0.233-0.25,0.354-0.371    c0.451-0.454,0.916-0.897,1.391-1.326c0.104-0.093,0.211-0.18,0.314-0.271c0.379-0.335,0.764-0.663,1.156-0.981    c0.174-0.14,0.352-0.276,0.527-0.413c0.338-0.263,0.678-0.521,1.025-0.771c0.1-0.073,0.195-0.152,0.297-0.224H178.946    c-28.849,0-52.318,23.469-52.318,52.314v317.283h280.16V131.307V71.09c0-0.691,0.024-1.375,0.064-2.056    c0.012-0.218,0.032-0.433,0.05-0.65c0.035-0.466,0.076-0.931,0.129-1.394c0.029-0.243,0.061-0.485,0.094-0.728    c0.061-0.443,0.129-0.883,0.206-1.32c0.04-0.231,0.079-0.461,0.124-0.691c0.096-0.494,0.206-0.983,0.323-1.47    c0.038-0.159,0.071-0.319,0.11-0.478c0.164-0.64,0.344-1.273,0.541-1.899c0.047-0.146,0.1-0.289,0.148-0.436    c0.158-0.479,0.323-0.954,0.501-1.423c0.08-0.214,0.167-0.426,0.253-0.637c0.16-0.402,0.327-0.801,0.503-1.197    c0.096-0.216,0.192-0.432,0.292-0.645c0.189-0.404,0.387-0.801,0.59-1.195c0.096-0.187,0.188-0.374,0.287-0.559    c0.287-0.535,0.587-1.063,0.9-1.582c0.02-0.034,0.038-0.068,0.059-0.102c0.336-0.551,0.688-1.09,1.053-1.621    c0.113-0.165,0.232-0.325,0.348-0.488C413.623,50.156,413.888,49.795,414.16,49.439z M216.335,109.922h82.054    c1.812,0,3.28,1.469,3.28,3.28c0,1.812-1.469,3.28-3.28,3.28h-82.054c-1.812,0-3.28-1.468-3.28-3.28    C213.056,111.391,214.523,109.922,216.335,109.922z M200.033,382.894c0,1.811-1.469,3.279-3.28,3.279h-33.655    c-1.812,0-3.28-1.469-3.28-3.279v-33.746c0-1.812,1.469-3.279,3.28-3.279h33.655c1.811,0,3.28,1.468,3.28,3.279V382.894z     M200.033,321.3c0,1.813-1.469,3.28-3.28,3.28h-33.655c-1.812,0-3.28-1.468-3.28-3.28v-33.65c0-1.811,1.469-3.279,3.28-3.279    h33.655c1.811,0,3.28,1.469,3.28,3.279V321.3z M200.033,259.807c0,1.812-1.469,3.28-3.28,3.28h-33.655    c-1.812,0-3.28-1.469-3.28-3.28v-33.75c0-1.811,1.469-3.28,3.28-3.28h33.655c1.811,0,3.28,1.469,3.28,3.28V259.807z     M200.033,198.213c0,1.812-1.469,3.28-3.28,3.28h-33.655c-1.812,0-3.28-1.468-3.28-3.28v-33.649c0-1.812,1.469-3.28,3.28-3.28    h33.655c1.811,0,3.28,1.468,3.28,3.28V198.213z M200.033,136.716c0,1.811-1.469,3.28-3.28,3.28h-33.655    c-1.812,0-3.28-1.469-3.28-3.28v-33.748c0-1.811,1.469-3.28,3.28-3.28h33.655c1.811,0,3.28,1.469,3.28,3.28V136.716z     M321.217,378.009H216.335c-1.812,0-3.28-1.468-3.28-3.279c0-1.813,1.468-3.28,3.28-3.28h104.881c1.811,0,3.279,1.468,3.279,3.28    C324.496,376.541,323.027,378.009,321.217,378.009z M213.056,359.38c0-1.812,1.468-3.28,3.28-3.28h82.054    c1.812,0,3.28,1.469,3.28,3.28c0,1.811-1.469,3.28-3.28,3.28h-82.054C214.523,362.66,213.056,361.19,213.056,359.38z     M321.217,316.415H216.335c-1.812,0-3.28-1.468-3.28-3.279c0-1.813,1.468-3.28,3.28-3.28h104.881c1.811,0,3.279,1.468,3.279,3.28    C324.496,314.947,323.027,316.415,321.217,316.415z M213.056,297.883c0-1.811,1.468-3.279,3.28-3.279h82.054    c1.812,0,3.28,1.469,3.28,3.279c0,1.812-1.469,3.28-3.28,3.28h-82.054C214.523,301.163,213.056,299.694,213.056,297.883z     M321.217,254.918H216.335c-1.812,0-3.28-1.468-3.28-3.28c0-1.811,1.468-3.28,3.28-3.28h104.881c1.811,0,3.279,1.469,3.279,3.28    C324.496,253.45,323.027,254.918,321.217,254.918z M213.056,236.289c0-1.812,1.468-3.28,3.28-3.28h82.054    c1.812,0,3.28,1.468,3.28,3.28c0,1.811-1.469,3.28-3.28,3.28h-82.054C214.523,239.569,213.056,238.1,213.056,236.289z     M321.217,193.324H216.335c-1.812,0-3.28-1.469-3.28-3.28c0-1.812,1.468-3.28,3.28-3.28h104.881c1.811,0,3.279,1.468,3.279,3.28    C324.496,191.855,323.027,193.324,321.217,193.324z M213.056,174.696c0-1.812,1.468-3.28,3.28-3.28h82.054    c1.812,0,3.28,1.468,3.28,3.28c0,1.811-1.469,3.28-3.28,3.28h-82.054C214.523,177.976,213.056,176.507,213.056,174.696z     M321.217,131.831H216.335c-1.812,0-3.28-1.468-3.28-3.28c0-1.811,1.468-3.28,3.28-3.28h104.881c1.811,0,3.279,1.469,3.279,3.28    C324.496,130.363,323.027,131.831,321.217,131.831z M367.86,378.009h-25.784c-1.812,0-3.28-1.468-3.28-3.279    c0-1.813,1.469-3.28,3.28-3.28h25.784c1.812,0,3.28,1.468,3.28,3.28C371.141,376.541,369.672,378.009,367.86,378.009z     M367.86,316.415h-25.784c-1.812,0-3.28-1.468-3.28-3.279c0-1.813,1.469-3.28,3.28-3.28h25.784c1.812,0,3.28,1.468,3.28,3.28    C371.141,314.947,369.672,316.415,367.86,316.415z M367.86,254.918h-25.784c-1.812,0-3.28-1.468-3.28-3.28    c0-1.811,1.469-3.28,3.28-3.28h25.784c1.812,0,3.28,1.469,3.28,3.28C371.141,253.45,369.672,254.918,367.86,254.918z     M367.86,193.324h-25.784c-1.812,0-3.28-1.469-3.28-3.28c0-1.812,1.469-3.28,3.28-3.28h25.784c1.812,0,3.28,1.468,3.28,3.28    C371.141,191.855,369.672,193.324,367.86,193.324z M367.86,131.831h-25.784c-1.812,0-3.28-1.468-3.28-3.28    c0-1.811,1.469-3.28,3.28-3.28h25.784c1.812,0,3.28,1.469,3.28,3.28C371.141,130.363,369.672,131.831,367.86,131.831z"/><rect height="8.593" width="30.043" x="65.038" y="365.904"/><path d="M442.533,41.996c-16.092,0-29.186,13.052-29.186,29.094v56.937h58.178V71.09C471.525,55.048,458.52,41.996,442.533,41.996    z"/><path d="M107.416,445.506h224.729c1.811,0,3.279-1.469,3.279-3.28c0-1.811-1.469-3.279-3.279-3.279H107.416    c-1.811,0-3.279,1.469-3.279,3.279C104.137,444.037,105.605,445.506,107.416,445.506z"/><path d="M409.188,463.444H217.222c-1.811,0-3.28,1.469-3.28,3.279c0,1.812,1.469,3.28,3.28,3.28h191.965    c1.812,0,3.28-1.469,3.28-3.28C412.468,464.913,410.999,463.444,409.188,463.444z"/><path d="M452.875,463.444h-24.008c-1.812,0-3.28,1.469-3.28,3.279c0,1.812,1.469,3.28,3.28,3.28h24.008    c1.811,0,3.279-1.469,3.279-3.28C456.154,464.913,454.686,463.444,452.875,463.444z"/><path d="M134.765,462.757H43.754c-1.811,0-3.279,1.469-3.279,3.28c0,1.811,1.469,3.279,3.279,3.279h91.011    c1.811,0,3.28-1.469,3.28-3.279C138.045,464.226,136.576,462.757,134.765,462.757z"/></g></g><g id="Layer_1"/></svg>